<?xml version="1.0" encoding="UTF-8"?>
<svg id="Layer_1" xmlns="http://www.w3.org/2000/svg" version="1.1" viewBox="0 0 242.7 53.7">
  <!-- Generator: Adobe Illustrator 29.0.0, SVG Export Plug-In . SVG Version: 2.1.0 Build 186)  -->
  <defs>
    <style>
      .st0 {
        fill: #231f20;
      }

      .st1 {
        fill: #fff;
      }

      .st2 {
        fill: #034ea2;
      }

      .st3 {
        fill: #f9ed21;
      }
    </style>
  </defs>
  <rect class="st1" x="1.8" y="1.5" width="74.7" height="50.7"/>
  <rect class="st2" x="3.3" y="2.9" width="71.8" height="47.9"/>
  <polyline class="st3" points="37.7 13.3 39.2 12.2 40.7 13.3 40.1 11.5 41.7 10.4 39.8 10.4 39.2 8.6 38.6 10.4 36.7 10.4 38.2 11.5 37.7 13.3"/>
  <polyline class="st3" points="29.8 15.4 31.3 14.3 32.8 15.4 32.3 13.6 33.8 12.5 31.9 12.5 31.3 10.7 30.8 12.5 28.9 12.5 30.4 13.6 29.8 15.4"/>
  <polyline class="st3" points="25.6 16.5 25 18.3 23.1 18.3 24.7 19.4 24.1 21.2 25.6 20.1 27.1 21.2 26.5 19.4 28.1 18.3 26.2 18.3 25.6 16.5"/>
  <polyline class="st3" points="23.5 27.9 25 29 24.4 27.2 26 26.1 24.1 26.1 23.5 24.3 22.9 26.1 21 26.1 22.6 27.2 22 29 23.5 27.9"/>
  <polyline class="st3" points="26.2 33.9 25.6 32.1 25 34 23.1 33.9 24.7 35.1 24.1 36.8 25.6 35.7 27.1 36.8 26.5 35.1 28.1 33.9 26.2 33.9"/>
  <polyline class="st3" points="31.9 39.7 31.3 37.9 30.8 39.7 28.9 39.7 30.4 40.8 29.8 42.6 31.3 41.5 32.9 42.6 32.3 40.8 33.8 39.7 31.9 39.7"/>
  <polyline class="st3" points="39.8 41.8 39.2 40 38.6 41.8 36.7 41.8 38.2 42.9 37.7 44.7 39.2 43.6 40.7 44.7 40.1 42.9 41.7 41.8 39.8 41.8"/>
  <polyline class="st3" points="47.6 39.7 47 37.9 46.4 39.7 44.5 39.7 46.1 40.8 45.5 42.6 47 41.5 48.5 42.6 47.9 40.8 49.5 39.7 47.6 39.7"/>
  <polyline class="st3" points="53.3 33.9 52.8 32.1 52.2 34 50.3 33.9 51.8 35.1 51.2 36.8 52.8 35.7 54.3 36.8 53.7 35.1 55.2 33.9 53.3 33.9"/>
  <polyline class="st3" points="57.3 26.1 55.4 26.1 54.8 24.3 54.3 26.1 52.4 26.1 53.9 27.2 53.3 29 54.8 27.9 56.4 29 55.8 27.2 57.3 26.1"/>
  <polyline class="st3" points="51.2 21.1 52.8 20 54.3 21.1 53.7 19.3 55.2 18.2 53.3 18.2 52.8 16.4 52.2 18.2 50.3 18.2 51.8 19.3 51.2 21.1"/>
  <polyline class="st3" points="47 10.7 46.4 12.5 44.6 12.5 46.1 13.6 45.5 15.4 47 14.3 48.5 15.4 48 13.6 49.5 12.5 47.6 12.5 47 10.7"/>
  <path class="st0" d="M89.4,32.1v1.8h-1.5v3.4c0,.7,0,1.1,0,1.2,0,.1,0,.2.2.3.1,0,.2.1.4.1s.5,0,.9-.2l.2,1.8c-.5.2-1.1.3-1.8.3s-.8,0-1.1-.2c-.3-.1-.6-.3-.7-.5-.2-.2-.3-.5-.3-.9,0-.3,0-.8,0-1.6v-3.7h-1v-1.8h1v-1.7l2.3-1.3v3h1.5Z"/>
  <path class="st0" d="M93.2,28.8v4.3c.7-.9,1.6-1.3,2.6-1.3s1,0,1.4.3.7.4.9.7c.2.3.4.6.4,1,0,.4.1.9.1,1.7v5h-2.3v-4.5c0-.9,0-1.5-.1-1.7,0-.2-.2-.4-.5-.6-.2-.1-.5-.2-.8-.2s-.7,0-1,.3c-.3.2-.5.5-.6.8-.1.4-.2.9-.2,1.6v4.3h-2.3v-11.8h2.3Z"/>
  <path class="st0" d="M106,37.9l2.3.4c-.3.8-.7,1.5-1.4,1.9-.6.4-1.4.6-2.3.6-1.5,0-2.6-.5-3.3-1.5-.6-.8-.8-1.8-.8-2.9s.4-2.5,1.1-3.3,1.7-1.2,2.8-1.2,2.3.4,3,1.3c.7.8,1.1,2.1,1.1,3.9h-5.7c0,.7.2,1.2.5,1.6.3.4.8.6,1.3.6s.7,0,.9-.3.4-.5.5-.9ZM106.1,35.6c0-.7-.2-1.2-.5-1.5-.3-.3-.7-.5-1.2-.5s-.9.2-1.2.5c-.3.4-.5.8-.5,1.5h3.4Z"/>
  <path class="st0" d="M114.8,40.6v-11.8h8.7v2h-6.4v2.6h5.9v2h-5.9v3.2h6.6v2h-9Z"/>
  <path class="st0" d="M131.3,40.6v-1.3c-.3.5-.7.8-1.2,1.1-.5.3-1,.4-1.6.4s-1.1-.1-1.5-.4c-.5-.3-.8-.6-1-1.1-.2-.5-.3-1.1-.3-1.9v-5.4h2.3v3.9c0,1.2,0,1.9.1,2.2,0,.3.2.5.5.6.2.2.5.2.8.2s.7-.1,1-.3c.3-.2.5-.5.6-.8.1-.3.2-1.1.2-2.3v-3.6h2.3v8.5h-2.1Z"/>
  <path class="st0" d="M137.9,40.6h-2.3v-8.5h2.1v1.2c.4-.6.7-1,1-1.1.3-.2.6-.3,1-.3s1,.1,1.5.4l-.7,2c-.4-.2-.7-.4-1.1-.4s-.6,0-.8.3c-.2.2-.4.5-.5.9-.1.5-.2,1.4-.2,2.9v2.6Z"/>
  <path class="st0" d="M141.7,36.2c0-.7.2-1.5.6-2.2.4-.7.9-1.2,1.6-1.6.7-.4,1.4-.6,2.3-.6,1.3,0,2.3.4,3.2,1.3.8.8,1.2,1.9,1.2,3.2s-.4,2.4-1.2,3.2-1.9,1.3-3.1,1.3-1.5-.2-2.2-.5c-.7-.4-1.2-.9-1.6-1.6-.4-.7-.6-1.5-.6-2.5ZM144,36.4c0,.8.2,1.5.6,1.9.4.5.9.7,1.5.7s1.1-.2,1.5-.7.6-1.1.6-2-.2-1.5-.6-1.9-.9-.7-1.5-.7-1.1.2-1.5.7c-.4.5-.6,1.1-.6,1.9Z"/>
  <path class="st0" d="M152.2,32.1h2.1v1.3c.3-.4.6-.8,1.1-1,.5-.3,1-.4,1.6-.4,1,0,1.8.4,2.5,1.2.7.8,1,1.9,1,3.2s-.3,2.5-1,3.3c-.7.8-1.5,1.2-2.5,1.2s-.9,0-1.3-.3c-.4-.2-.8-.5-1.2-1v4.3h-2.3v-11.8ZM154.4,36.2c0,1,.2,1.7.6,2.1.4.5.8.7,1.4.7s1-.2,1.3-.6c.3-.4.5-1.1.5-2.1s-.2-1.6-.5-2c-.4-.4-.8-.7-1.3-.7s-1,.2-1.4.6c-.4.4-.5,1.1-.5,1.9Z"/>
  <path class="st0" d="M167.2,37.9l2.3.4c-.3.8-.7,1.5-1.4,1.9-.6.4-1.4.6-2.3.6-1.5,0-2.6-.5-3.3-1.5-.6-.8-.8-1.8-.8-2.9s.4-2.5,1.1-3.3,1.7-1.2,2.8-1.2,2.3.4,3,1.3c.7.8,1.1,2.1,1.1,3.9h-5.7c0,.7.2,1.2.5,1.6.3.4.8.6,1.3.6s.7,0,.9-.3.4-.5.5-.9ZM167.4,35.6c0-.7-.2-1.2-.5-1.5-.3-.3-.7-.5-1.2-.5s-.9.2-1.2.5c-.3.4-.5.8-.5,1.5h3.4Z"/>
  <path class="st0" d="M173.1,34.7l-2-.4c.2-.8.6-1.4,1.2-1.8.6-.4,1.4-.6,2.5-.6s1.8.1,2.3.4c.5.2.8.5,1,.9.2.4.3,1,.3,2v2.6c0,.7,0,1.3,0,1.7,0,.4.2.7.4,1.1h-2.2c0-.1-.1-.4-.2-.7,0-.1,0-.2,0-.3-.4.4-.8.7-1.2.8-.4.2-.9.3-1.4.3-.9,0-1.6-.2-2.1-.7-.5-.5-.8-1.1-.8-1.8s.1-.9.3-1.3c.2-.4.6-.7,1-.9.4-.2,1-.4,1.8-.5,1.1-.2,1.8-.4,2.2-.6v-.2c0-.4-.1-.7-.3-.9-.2-.2-.6-.3-1.2-.3s-.7,0-.9.2c-.2.2-.4.4-.5.8ZM176.2,36.5c-.3,0-.7.2-1.4.3-.6.1-1,.3-1.2.4-.3.2-.4.5-.4.8s.1.6.4.8c.2.2.5.3.9.3s.8-.1,1.2-.4c.3-.2.5-.5.5-.7,0-.2,0-.6,0-1.1v-.5Z"/>
  <path class="st0" d="M188.4,40.6h-2.3v-4.4c0-.9,0-1.5-.1-1.8s-.3-.5-.5-.6c-.2-.1-.5-.2-.8-.2s-.7.1-1.1.3c-.3.2-.5.5-.6.9-.1.4-.2,1-.2,2v3.9h-2.3v-8.5h2.1v1.3c.7-1,1.7-1.4,2.8-1.4s1,0,1.4.3c.4.2.7.4.9.7.2.3.4.6.4.9,0,.4.1.9.1,1.5v5.3Z"/>
  <path class="st0" d="M195.2,28.8h2.4v6.4c0,1,0,1.7,0,2,.1.5.3.9.7,1.2s.9.4,1.6.4,1.2-.1,1.5-.4c.3-.3.5-.6.6-1,0-.4.1-1.1.1-2v-6.5h2.4v6.2c0,1.4,0,2.4-.2,3-.1.6-.4,1.1-.7,1.5-.3.4-.8.7-1.4,1s-1.3.4-2.3.4-2-.1-2.6-.4c-.6-.3-1-.6-1.4-1-.3-.4-.6-.9-.7-1.3-.2-.7-.2-1.7-.2-3v-6.3Z"/>
  <path class="st0" d="M214.9,40.6h-2.3v-4.4c0-.9,0-1.5-.1-1.8s-.3-.5-.5-.6c-.2-.1-.5-.2-.8-.2s-.7.1-1.1.3c-.3.2-.5.5-.6.9-.1.4-.2,1-.2,2v3.9h-2.3v-8.5h2.1v1.3c.7-1,1.7-1.4,2.8-1.4s1,0,1.4.3c.4.2.7.4.9.7.2.3.4.6.4.9,0,.4.1.9.1,1.5v5.3Z"/>
  <path class="st0" d="M217.2,30.9v-2.1h2.3v2.1h-2.3ZM217.2,40.6v-8.5h2.3v8.5h-2.3Z"/>
  <path class="st0" d="M221.2,36.2c0-.7.2-1.5.6-2.2.4-.7.9-1.2,1.6-1.6.7-.4,1.4-.6,2.3-.6,1.3,0,2.3.4,3.2,1.3.8.8,1.2,1.9,1.2,3.2s-.4,2.4-1.2,3.2c-.8.8-1.9,1.3-3.1,1.3s-1.5-.2-2.2-.5c-.7-.4-1.2-.9-1.6-1.6-.4-.7-.6-1.5-.6-2.5ZM223.5,36.4c0,.8.2,1.5.6,1.9.4.5.9.7,1.5.7s1.1-.2,1.5-.7.6-1.1.6-2-.2-1.5-.6-1.9-.9-.7-1.5-.7-1.1.2-1.5.7c-.4.5-.6,1.1-.6,1.9Z"/>
  <path class="st0" d="M239.6,40.6h-2.3v-4.4c0-.9,0-1.5-.1-1.8s-.3-.5-.5-.6c-.2-.1-.5-.2-.8-.2s-.7.1-1.1.3c-.3.2-.5.5-.6.9-.1.4-.2,1-.2,2v3.9h-2.3v-8.5h2.1v1.3c.7-1,1.7-1.4,2.8-1.4s1,0,1.4.3c.4.2.7.4.9.7.2.3.4.6.4.9,0,.4.1.9.1,1.5v5.3Z"/>
  <g>
    <path class="st0" d="M93.1,16.5l2.3.7c-.4,1.3-.9,2.2-1.8,2.9-.8.6-1.9.9-3.1.9s-2.9-.5-3.9-1.6c-1-1.1-1.5-2.5-1.5-4.4s.5-3.5,1.5-4.6c1-1.1,2.3-1.6,4-1.6s2.6.4,3.5,1.3c.5.5.9,1.2,1.2,2.2l-2.4.6c-.1-.6-.4-1.1-.9-1.4-.4-.4-1-.5-1.6-.5s-1.6.3-2.1.9c-.5.6-.8,1.6-.8,3s.3,2.6.8,3.2c.5.6,1.2.9,2.1.9s1.2-.2,1.6-.6c.5-.4.8-1,1-1.9Z"/>
    <path class="st0" d="M96.9,16.5c0-.7.2-1.5.6-2.2.4-.7.9-1.2,1.6-1.6s1.4-.6,2.3-.6c1.3,0,2.3.4,3.2,1.3.8.8,1.2,1.9,1.2,3.2s-.4,2.4-1.2,3.2-1.9,1.3-3.1,1.3-1.5-.2-2.2-.5c-.7-.4-1.2-.9-1.6-1.6-.4-.7-.6-1.5-.6-2.5ZM99.2,16.6c0,.8.2,1.5.6,1.9.4.5.9.7,1.5.7s1.1-.2,1.5-.7.6-1.1.6-2-.2-1.5-.6-1.9-.9-.7-1.5-.7-1.1.2-1.5.7c-.4.5-.6,1.1-.6,1.9Z"/>
    <path class="st0" d="M107.2,17.7v-2.3h4.4v2.3h-4.4Z"/>
    <path class="st0" d="M112,12.3h1.3v-.6c0-.7,0-1.3.2-1.6.2-.4.4-.6.8-.9.4-.2.9-.3,1.6-.3s1.3,0,1.9.3l-.3,1.6c-.4,0-.7-.1-1-.1s-.6,0-.7.2c-.1.2-.2.4-.2.9v.6h1.7v1.8h-1.7v6.8h-2.3v-6.8h-1.3v-1.8Z"/>
    <path class="st0" d="M124.1,20.8v-1.3c-.3.5-.7.8-1.2,1.1-.5.3-1,.4-1.6.4s-1.1-.1-1.5-.4c-.5-.3-.8-.6-1-1.1-.2-.5-.3-1.1-.3-1.9v-5.4h2.3v3.9c0,1.2,0,1.9.1,2.2,0,.3.2.5.5.6.2.2.5.2.8.2s.7-.1,1-.3c.3-.2.5-.5.6-.8.1-.3.2-1.1.2-2.3v-3.6h2.3v8.5h-2.1Z"/>
    <path class="st0" d="M136.3,20.8h-2.3v-4.4c0-.9,0-1.5-.1-1.8s-.3-.5-.5-.6c-.2-.1-.5-.2-.8-.2s-.7.1-1.1.3c-.3.2-.5.5-.6.9-.1.4-.2,1-.2,2v3.9h-2.3v-8.5h2.1v1.3c.7-1,1.7-1.4,2.8-1.4s1,0,1.4.3c.4.2.7.4.9.7.2.3.4.6.4.9,0,.4.1.9.1,1.5v5.3Z"/>
    <path class="st0" d="M146.4,20.8h-2.1v-1.3c-.3.5-.8.9-1.2,1.1-.5.2-1,.4-1.4.4-1,0-1.8-.4-2.5-1.2-.7-.8-1-1.9-1-3.3s.3-2.5,1-3.3c.7-.8,1.5-1.1,2.6-1.1s1.8.4,2.5,1.2v-4.2h2.3v11.8ZM140.4,16.4c0,.9.1,1.6.4,2,.4.6.9.9,1.5.9s1-.2,1.3-.7c.4-.4.5-1.1.5-2s-.2-1.7-.5-2.1c-.4-.4-.8-.6-1.4-.6s-1,.2-1.3.6c-.4.4-.5,1.1-.5,1.9Z"/>
    <path class="st0" d="M153.5,18.1l2.3.4c-.3.8-.7,1.5-1.4,1.9-.6.4-1.4.6-2.3.6-1.5,0-2.6-.5-3.3-1.5-.6-.8-.8-1.8-.8-2.9s.4-2.5,1.1-3.3c.7-.8,1.7-1.2,2.8-1.2s2.3.4,3,1.3c.7.8,1.1,2.1,1.1,3.9h-5.7c0,.7.2,1.2.5,1.6.3.4.8.6,1.3.6s.7,0,.9-.3c.2-.2.4-.5.5-.9ZM153.7,15.8c0-.7-.2-1.2-.5-1.5-.3-.3-.7-.5-1.2-.5s-.9.2-1.2.5c-.3.4-.5.8-.5,1.5h3.4Z"/>
    <path class="st0" d="M165.6,20.8h-2.1v-1.3c-.3.5-.8.9-1.2,1.1-.5.2-1,.4-1.4.4-1,0-1.8-.4-2.5-1.2-.7-.8-1-1.9-1-3.3s.3-2.5,1-3.3c.7-.8,1.5-1.1,2.6-1.1s1.8.4,2.5,1.2v-4.2h2.3v11.8ZM159.6,16.4c0,.9.1,1.6.4,2,.4.6.9.9,1.5.9s1-.2,1.3-.7c.4-.4.5-1.1.5-2s-.2-1.7-.5-2.1-.8-.6-1.4-.6-1,.2-1.3.6c-.4.4-.5,1.1-.5,1.9Z"/>
    <path class="st0" d="M172.3,20.8v-11.8h2.3v4.2c.7-.8,1.5-1.2,2.5-1.2s1.9.4,2.6,1.1c.7.8,1,1.8,1,3.2s-.3,2.6-1,3.4c-.7.8-1.5,1.2-2.5,1.2s-1-.1-1.4-.4c-.5-.2-.9-.6-1.2-1.1v1.3h-2.1ZM174.5,16.4c0,.9.1,1.5.4,2,.4.6.9.9,1.6.9s.9-.2,1.3-.6c.4-.4.5-1.1.5-2s-.2-1.7-.5-2.1-.8-.6-1.4-.6-1,.2-1.4.6c-.4.4-.5,1.1-.5,1.9Z"/>
    <path class="st0" d="M181.4,12.3h2.4l2,6.1,2-6.1h2.3l-3,8.2-.5,1.5c-.2.5-.4.9-.6,1.1-.2.3-.4.5-.6.6-.2.2-.5.3-.9.4-.3,0-.7.1-1.2.1s-.9,0-1.3-.1l-.2-1.8c.4,0,.7.1,1,.1.5,0,.9-.2,1.2-.5.3-.3.4-.7.6-1.2l-3.2-8.6Z"/>
  </g>
</svg>