<?xml version="1.0" encoding="UTF-8" standalone="no"?>
<svg
   id="Layer_1"
   version="1.1"
   viewBox="0 0 127.3 58.5"
   sodipodi:docname="geant_logo.svg"
   inkscape:version="1.2.2 (b0a8486541, 2022-12-01)"
   xmlns:inkscape="http://www.inkscape.org/namespaces/inkscape"
   xmlns:sodipodi="http://sodipodi.sourceforge.net/DTD/sodipodi-0.dtd"
   xmlns="http://www.w3.org/2000/svg"
   xmlns:svg="http://www.w3.org/2000/svg">
  <sodipodi:namedview
     id="namedview23"
     pagecolor="#ffffff"
     bordercolor="#000000"
     borderopacity="0.25"
     inkscape:showpageshadow="2"
     inkscape:pageopacity="0.0"
     inkscape:pagecheckerboard="0"
     inkscape:deskcolor="#d1d1d1"
     showgrid="false"
     inkscape:zoom="8.4367633"
     inkscape:cx="63.650002"
     inkscape:cy="29.27663"
     inkscape:window-width="1635"
     inkscape:window-height="1012"
     inkscape:window-x="822"
     inkscape:window-y="370"
     inkscape:window-maximized="0"
     inkscape:current-layer="Layer_1" />
  <!-- Generator: Adobe Illustrator 29.0.0, SVG Export Plug-In . SVG Version: 2.1.0 Build 186)  -->
  <defs
     id="defs4">
    <style
       id="style2">
      .st0 {
        fill: #262262;
      }
    </style>
  </defs>
  <g
     id="g16"
     style="fill:#4b575e;fill-opacity:1">
    <path
       class="st0"
       d="M27.1,30.7c.9-.7,1.7-1.1,2.4-1.1,1.5,0,2,1.1,2,1.7-.3.1-6.9,2.3-7.2,2.4-.1-.1-.2-.2-.4-.4.3-.3,3.1-2.7,3.1-2.7Z"
       id="path6"
       style="fill:#4b575e;fill-opacity:1" />
    <path
       class="st0"
       d="M2.9,44.7c0,7.4,3.3,11.1,9.7,11.1s6.8-1.9,6.9-2l.2-.2v-10.2h-8.9v2.8h5.3v5.8c-.5.3-1.8.8-3.7.8-3.8,0-5.6-2.7-5.6-8.3s.9-7,5.2-7,3.9,1.7,3.9,3.3v.5h3.9v-.5c0-3.6-3.2-6.1-7.9-6.1s-9,3.6-9,9.9Z"
       id="path8"
       style="fill:#4b575e;fill-opacity:1" />
    <path
       class="st0"
       d="M33.7,35.2h-11.6v20.4h12.4v-2.8h-8.8v-6.4h8.1v-2.8h-8.1v-5.5h8.5v-2.8h-.5Z"
       id="path10"
       style="fill:#4b575e;fill-opacity:1" />
    <path
       class="st0"
       d="M86,35.2h-17.7v15.1c-1.4-2.5-8.7-15.1-8.7-15.1h-4.1v20.4h3.5v-15c1.4,2.5,8.7,15,8.7,15h4.1s0-16.6,0-17.5h5.6v17.5h3.6v-17.5h5.5v-2.8h-.5Z"
       id="path12"
       style="fill:#4b575e;fill-opacity:1" />
    <path
       class="st0"
       d="M46.9,35.2h-3.9l-7.7,20.4h3.7s2-5.4,2.2-6h7.5c.2.6,2.3,6,2.3,6h3.7l-7.8-20.4ZM42.4,46.7c.3-1,2.1-5.9,2.7-7.6.6,1.8,2.3,6.6,2.7,7.6h-5.3Z"
       id="path14"
       style="fill:#4b575e;fill-opacity:1" />
  </g>
  <path
     class="st0"
     d="M120.3,15.8C106.9-.8,52.6,22.6,38,28.8c-1.1.4-2.4.3-3.2-1.2.6,1.5,1.8,2.1,3.3,1.5,19.4-7.8,66.2-24.6,78-9.2,5.3,6.9,3.8,15.5-2,27.6-.3.5-.5.9-.5.9,0,0,0,0,0,0,0,0,0,0,0,0-.4.7-1,1.1-1.6,1.3.7,0,1.4-.4,1.9-1.2.1-.2.3-.5.5-.9h0c8.6-14.3,11.6-25,6-31.9Z"
     id="path18"
     style="fill:#4b575e;fill-opacity:1" />
  <path
     class="st0"
     d="M110.1,49.2c-.2-.2-2.6-2.3-5-4.6C92.3,32.6,53.9-4.5,37.1,5.2c-4.7,2.8-5.6,10.8-2.6,21.4,0,0,0,0,0,0h0c0,.1,0,.3.1.4.3,1.1,1.1,1.8,2.1,1.9-.7-.2-1.3-.7-1.7-1.6,0-.1,0-.2-.1-.4,0-.2,0-.4-.2-.6h0c0-.1,0-.2,0-.4-1.6-9.1.3-15,4-17.4C52.1-.1,84.5,27.7,100.7,41.8c3.7,3.2,7.9,6.8,9.2,7.8,1.9,1.4,3.4-.2,3.8-.9-.6.9-2.2,1.7-3.6.5Z"
     id="path20"
     style="fill:#4b575e;fill-opacity:1" />
</svg>
