<?xml version="1.0" encoding="UTF-8"?>
<svg id="Layer_1" xmlns="http://www.w3.org/2000/svg" xmlns:xlink="http://www.w3.org/1999/xlink" version="1.1" viewBox="0 0 1086.4 388.6">
  <!-- Generator: Adobe Illustrator 29.0.0, SVG Export Plug-In . SVG Version: 2.1.0 Build 186)  -->
  <defs>
    <style>
      .st0 {
        fill: none;
      }

      .st1 {
        fill: #fff;
      }

      .st2 {
        fill: #f19022;
      }

      .st3 {
        clip-path: url(#clippath);
      }
    </style>
    <clipPath id="clippath">
      <rect class="st0" x="-1.4" y="-1.2" width="1091.7" height="405"/>
    </clipPath>
  </defs>
  <g class="st3">
    <path class="st2" d="M486.1,378.2C960.4-91.4,1653.1-159.7,1775.6-167.2c1.9-.1,3.6.7,5,1.9L526.7-749c-25.4-11.9-54.8-11.9-80.2,0L-845.9-144.3c-35.4,16.5-35.4,66.8,0,83.4L-295.5,196.5l154.8,74.8c63.3-16.6,382-57.6,626.9,106.9Z"/>
  </g>
  <g>
    <g>
      <path class="st1" d="M121.8,156v4.2h6.9v3.5h-6.9v7.2h-4.5v-18.6h13.2v3.7h-8.7Z"/>
      <path class="st1" d="M157.8,170.9h-4.7l-1.1-3.8h-6l-1.2,3.8h-3.8l5.9-18.6h5l5.8,18.6ZM151,163.6l-2-6.5-2,6.5h4Z"/>
      <path class="st1" d="M180.3,157.6c-.7-1.7-1.5-2.2-3.2-2.2s-2.5.6-2.5,1.6.7,1.6,2.7,1.9c2.8.6,3.9.9,4.9,1.6,1.6,1.1,2.4,2.6,2.4,4.4s-1.1,3.9-2.7,5c-1.2.8-3,1.2-4.9,1.2s-3.9-.5-5.3-1.6c-1.2-.9-1.7-1.8-2.2-3.6l4-.9c.5,1.8,1.7,2.6,3.8,2.6s3-.8,3-2-.8-1.6-3.2-2.1c-2.1-.4-3.3-.8-4.3-1.4-1.4-.9-2.3-2.4-2.3-4.2s.6-3.2,1.9-4.3c1.3-1.1,2.8-1.6,4.9-1.6s3.6.5,4.9,1.4c1,.7,1.5,1.4,2.1,3l-3.7,1.2Z"/>
      <path class="st1" d="M210.4,156h-4.6v14.9h-4.4v-14.9h-4.6v-3.7h13.6v3.7Z"/>
      <path class="st1" d="M250.7,157.6c-.7-1.7-1.5-2.2-3.2-2.2s-2.5.6-2.5,1.6.7,1.6,2.7,1.9c2.8.6,3.9.9,4.9,1.6,1.6,1.1,2.4,2.6,2.4,4.4s-1.1,3.9-2.7,5c-1.2.8-3,1.2-4.9,1.2s-3.9-.5-5.3-1.6c-1.2-.9-1.7-1.8-2.2-3.6l4-.9c.5,1.8,1.7,2.6,3.8,2.6s3-.8,3-2-.8-1.6-3.2-2.1c-2.1-.4-3.3-.8-4.3-1.4-1.4-.9-2.3-2.4-2.3-4.2s.6-3.2,1.9-4.3c1.3-1.1,2.8-1.6,4.9-1.6s3.6.5,4.9,1.4c1,.7,1.5,1.4,2.1,3l-3.7,1.2Z"/>
      <path class="st1" d="M273.2,170.9h-4.3v-18.6h4.3v18.6Z"/>
      <path class="st1" d="M291.7,155.7v15.2h-3.7v-18.6h6.8l3.3,11.1,3.5-11.1h6.8v18.6h-4.4v-15.2l-4.7,15.2h-3l-4.6-15.2Z"/>
      <path class="st1" d="M327.6,170.9h-4.4v-18.6h7.3c2.7,0,3.9.3,5.2,1.5,1.3,1.1,1.9,2.5,1.9,4.2s-.7,3.6-2,4.7c-1.2,1-2.3,1.3-4.9,1.3h-3.1v6.9ZM330.3,160.6c1.2,0,1.8-.2,2.3-.8.4-.4.6-1,.6-1.7s-.3-1.3-.7-1.8c-.5-.5-1.1-.7-2.2-.7h-2.8v4.9h2.8Z"/>
      <path class="st1" d="M362.7,167.2v3.7h-11.8v-18.6h4.4v14.9h7.4Z"/>
      <path class="st1" d="M380.5,155.8v3.8h7v3.5h-7v4.1h8.9v3.7h-13.3v-18.6h13.3v3.5h-8.9Z"/>
      <path class="st1" d="M430.3,157.6c-.7-1.7-1.5-2.2-3.2-2.2s-2.5.6-2.5,1.6.7,1.6,2.7,1.9c2.8.6,3.9.9,4.9,1.6,1.6,1.1,2.4,2.6,2.4,4.4s-1.1,3.9-2.7,5c-1.2.8-3,1.2-4.9,1.2s-3.9-.5-5.3-1.6c-1.2-.9-1.7-1.8-2.2-3.6l4-.9c.5,1.8,1.7,2.6,3.8,2.6s3-.8,3-2-.8-1.6-3.2-2.1c-2.1-.4-3.3-.8-4.3-1.4-1.4-.9-2.3-2.4-2.3-4.2s.6-3.2,1.9-4.3,2.8-1.6,4.9-1.6,3.6.5,4.9,1.4c1,.7,1.5,1.4,2.1,3l-3.7,1.2Z"/>
      <path class="st1" d="M453,155.8v3.8h7v3.5h-7v4.1h8.9v3.7h-13.3v-18.6h13.3v3.5h-8.9Z"/>
      <path class="st1" d="M486,159.5c0-1.2-.2-1.7-.5-2.4-.4-1-1.4-1.6-2.6-1.6-2.3,0-3.4,2.1-3.4,6.2s1.1,5.8,3.5,5.8,2.9-1.1,3.3-3.5l4.2.3c-.3,1.8-.6,2.8-1.4,3.9-1.4,1.9-3.5,2.9-6.2,2.9-5,0-8.3-3.8-8.3-9.6s.7-5,2.2-6.8c1.5-1.9,3.5-2.8,6.2-2.8s4.6.9,5.9,2.6c.9,1.3,1.3,2.3,1.6,4.5l-4.5.3Z"/>
      <path class="st1" d="M518.8,163.9c0,3-.4,4.4-1.7,5.5-1.3,1.2-3.1,1.7-5.6,1.7s-4.5-.6-5.8-1.8c-1.2-1.2-1.6-2.7-1.6-5.4v-11.6h4.7v11.6c0,1.5.1,2.1.5,2.7.5.7,1.4,1,2.6,1s2.3-.4,2.7-1c.4-.5.5-1.1.5-2.7v-11.6h3.7v11.6Z"/>
      <path class="st1" d="M537.8,170.9h-4.4v-18.6h8.2c2.4,0,3.7.3,4.8,1.3,1.2,1,2,2.6,2,4.3s-.5,2.7-1.4,3.6c-.4.5-.9.8-1.8,1.2l3.4,8.2h-4.8l-2.8-7.4h-3.1v7.4ZM537.8,160.3h2.7c1.4,0,1.8,0,2.3-.4.6-.4,1.1-1.2,1.1-2s-.3-1.4-.9-1.8c-.6-.4-.9-.5-2.6-.5h-2.6v4.7Z"/>
      <path class="st1" d="M567.2,155.8v3.8h7v3.5h-7v4.1h8.9v3.7h-13.3v-18.6h13.3v3.5h-8.9Z"/>
    </g>
    <g>
      <path class="st1" d="M263.3,81.1v45.8h-11.2v-45.8h11.2Z"/>
      <path class="st1" d="M301.6,126.9h-10.5v-19c0-2.3,0-3.9-.3-4.7-.2-.8-.6-1.6-1.4-2.2-.7-.6-1.6-.9-2.8-.9-3.7,0-5.5,2.6-5.5,7.8v19h-10.5v-33.9h9.8v5.7c1.6-2.7,3.2-4.5,4.8-5.3,1.6-.8,3.3-1.2,5.1-1.2,3.4,0,6.1.9,8.2,2.6,2.1,1.7,3.1,5.1,3.1,10.2v21.8Z"/>
      <path class="st1" d="M339.6,126.9h-5.7l-4.5-13h-16.5l-4,13h-4.7l14.4-44.4h6.3l14.5,44.4ZM328.3,109.7l-6.9-21.3-6.9,21.3h13.7Z"/>
      <path class="st1" d="M363.8,115.4l4.6.8c-.6,3.6-2.1,6.5-4.3,8.5-2.2,2.1-5,3.1-8.4,3.1s-8-1.7-10.4-5c-2.4-3.3-3.6-7.4-3.6-12.2s1.3-9.1,3.8-12.5c2.5-3.3,5.9-5,10.2-5s6.4,1.1,8.6,3.2c2.2,2.1,3.5,4.9,4,8.3l-4.6.9c-.9-5.4-3.5-8.1-7.9-8.1s-5,1.2-6.5,3.6c-1.5,2.4-2.3,5.5-2.3,9.3s.8,7.5,2.3,9.8c1.5,2.3,3.6,3.5,6.3,3.5,4.2,0,6.9-2.7,8-8.2Z"/>
      <path class="st1" d="M401.1,126.9h-5c-.2-1-.4-3-.6-5.9-2.3,4.6-6.1,6.8-11.5,6.8s-6.5-1-8.5-2.9c-2-2-3-4.3-3-7s1.4-6.1,4.2-8.2c2.8-2.1,7.6-3.2,14.4-3.2s2.4,0,4.4.1c0-2.6-.2-4.5-.6-5.6-.4-1.2-1.3-2.1-2.6-2.8-1.3-.7-3-1-5.1-1-5.2,0-8.2,2-9,5.9l-4.7-.8c1.1-6,6-9.1,14.5-9.1s7.7,1,9.6,3c1.9,2,2.8,5.5,2.8,10.4v14c0,2.3.2,4.4.7,6.4ZM395.5,110.4c-2.1-.1-3.7-.2-4.7-.2-4,0-7.2.7-9.4,2-2.2,1.3-3.3,3.3-3.3,5.8s.6,3,1.8,4.1c1.2,1.1,2.9,1.7,5.2,1.7s5.6-1.1,7.6-3.4c2-2.2,3-4.9,3-7.9s0-1.3,0-2.2Z"/>
      <path class="st1" d="M436.3,82.5v44.4h-4.6v-5.6c-2.3,4.4-5.8,6.5-10.4,6.5s-7-1.6-9.5-4.8c-2.5-3.2-3.7-7.3-3.7-12.2s1.2-9.2,3.7-12.6c2.5-3.4,5.7-5,9.8-5s7.2,1.8,9.7,5.4v-16h5.1ZM431.2,106.7c0-2.9-.9-5.2-2.6-6.9-1.8-1.7-3.8-2.6-6.1-2.6s-4.6,1.1-6.3,3.4c-1.6,2.3-2.5,5.4-2.5,9.5s.8,7.8,2.3,10,3.6,3.4,6.2,3.4,4.5-1,6.3-3c1.8-2,2.7-4.3,2.7-7v-6.8Z"/>
      <path class="st1" d="M468.2,117.1l4.7,1c-.9,2.8-2.6,5.1-5.1,7-2.5,1.8-5.5,2.8-8.9,2.8s-8.1-1.6-10.9-4.7c-2.8-3.2-4.2-7.3-4.2-12.4s1.4-9.5,4.3-12.7c2.9-3.2,6.5-4.8,10.9-4.8s7.7,1.5,10.4,4.5c2.6,3,4,7.4,4,13.3h-23.9c0,5,1,8.3,3.1,10,2.1,1.7,4.3,2.6,6.6,2.6,4.2,0,7.1-2.2,8.8-6.5ZM467.9,107.1c0-1.8-.3-3.5-.9-4.9-.6-1.4-1.5-2.7-2.9-3.7-1.3-1-3-1.5-4.8-1.5s-4.7.9-6.5,2.7c-1.8,1.8-2.8,4.3-3,7.3h18Z"/>
      <path class="st1" d="M525.2,126.9h-5v-20.4c0-2.1-.1-3.7-.4-4.7-.3-1.1-1-2-2.1-2.9-1.1-.9-2.4-1.3-3.8-1.3s-3.8.9-5.6,2.7c-1.8,1.8-2.7,4.5-2.7,8.2v18.5h-4.9v-21.6c0-2.9-.7-4.9-2.1-6.1-1.4-1.2-2.8-1.8-4.3-1.8-2.2,0-4.1.9-5.7,2.8-1.6,1.9-2.4,4.2-2.4,7.1v19.6h-4.9v-32.8h4.4v6.3c2.4-4.8,5.8-7.2,10.1-7.2s4.4.8,6,2.3c1.6,1.5,2.7,3.4,3.2,5.6,2.3-5.2,5.7-7.9,10.4-7.9s4.2.6,5.9,1.9c1.7,1.3,2.8,2.7,3.3,4.4.5,1.7.8,4,.8,7v20.4Z"/>
      <path class="st1" d="M540.6,82.5v5.7h-5.5v-5.7h5.5ZM540.5,94v32.8h-5.1v-32.8h5.1Z"/>
      <path class="st1" d="M576.4,126.9h-5c-.2-1-.4-3-.6-5.9-2.3,4.6-6.1,6.8-11.5,6.8s-6.5-1-8.5-2.9c-2-2-3-4.3-3-7s1.4-6.1,4.2-8.2c2.8-2.1,7.6-3.2,14.4-3.2s2.4,0,4.4.1c0-2.6-.2-4.5-.6-5.6-.4-1.2-1.3-2.1-2.6-2.8-1.3-.7-3-1-5.1-1-5.2,0-8.2,2-9,5.9l-4.7-.8c1.1-6,6-9.1,14.5-9.1s7.7,1,9.6,3c1.9,2,2.8,5.5,2.8,10.4v14c0,2.3.2,4.4.7,6.4ZM570.7,110.4c-2.1-.1-3.7-.2-4.7-.2-4,0-7.2.7-9.4,2-2.2,1.3-3.3,3.3-3.3,5.8s.6,3,1.8,4.1c1.2,1.1,2.9,1.7,5.2,1.7s5.6-1.1,7.6-3.4c2-2.2,3-4.9,3-7.9s0-1.3,0-2.2Z"/>
      <path class="st1" d="M223.6,84.1c-6,.4-12,1.4-17.9,2.9-2.9.8-23.6,5.4-45.4,25.2-12-8.1-28-8.2-30.8-7.4-.1,0-.2.1-.3.3,0,.2,0,.4.3.5h0c1.4.4,2.7.8,3.9,1.3,1.3.5,2.5,1,3.7,1.5,2.4,1.1,4.8,2.3,7.1,3.6,2.3,1.3,4.6,2.7,6.8,4.2l3.3,2.2,1.6,1.1c.5.4,1.1.8,1.6,1.1l2.7,2,2.2-2.4c.4-.5.9-1.1,1.4-1.6l1.5-1.6c1-1.1,2.1-2.2,3.2-3.2,2.2-2.1,4.4-4.1,6.8-6,4.7-3.8,9.7-7.1,14.9-10.2,5.2-3,10.6-5.6,16.2-7.8,5.6-2.1,11.4-3.8,17.2-4.9.2,0,.3-.2.3-.4,0-.2-.2-.4-.4-.4Z"/>
      <g>
        <polygon class="st1" points="221.5 80.9 221.5 80.9 221.5 80.9 221.5 80.9"/>
        <path class="st1" d="M159.8,106.8c22.6-22.4,55.7-25.7,61.5-26,0,0,.2,0,.2,0l-59.8-27.8c-1.2-.6-2.6-.6-3.8,0l-61.6,28.8c-1.7.8-1.7,3.2,0,4l26.2,12.3,7.4,3.6c3-.8,18.2-2.7,29.9,5.1Z"/>
      </g>
      <path class="st1" d="M160.2,144l-1.7-1.6c-4.6-4.4-10.2-7.9-16.7-10.6-6.6-2.7-13.8-4.3-21.3-4.8h-2.3c0-.1,0-19.6,0-19.6,0-1.3,1-2.6,2.4-2.6,1.4,0,2.6,1.1,2.6,2.5v13.7c0,.7.6,1.3,1.3,1.4,6.7.7,13.2,2.4,19.3,4.8,6.3,2.6,11.9,5.9,16.6,10,4.7-4.1,10.3-7.4,16.6-10,6-2.4,12.4-4,19.1-4.8.8,0,1.4-.8,1.4-1.6v-19.4c0-1.3,1-2.6,2.4-2.6,1.4,0,2.6,1.1,2.6,2.5v25.6h-2.3c-7.5.6-14.7,2.2-21.3,4.9-6.5,2.7-12.2,6.2-16.7,10.6l-1.7,1.6Z"/>
    </g>
  </g>
</svg>