<?xml version="1.0" encoding="UTF-8" standalone="no"?>
<!-- Generator: Adobe Illustrator 27.7.0, SVG Export Plug-In . SVG Version: 6.00 Build 0)  -->

<svg
   version="1.1"
   id="Layer_1"
   x="0px"
   y="0px"
   viewBox="0 0 399.99999 299.99999"
   xml:space="preserve"
   sodipodi:docname="mortarboard.svg"
   width="400"
   height="300"
   inkscape:version="1.2.2 (b0a8486541, 2022-12-01)"
   xmlns:inkscape="http://www.inkscape.org/namespaces/inkscape"
   xmlns:sodipodi="http://sodipodi.sourceforge.net/DTD/sodipodi-0.dtd"
   xmlns="http://www.w3.org/2000/svg"
   xmlns:svg="http://www.w3.org/2000/svg">
<defs
   id="defs32"></defs>
<sodipodi:namedview
   id="namedview30"
   pagecolor="#ffffff"
   bordercolor="#666666"
   borderopacity="1.0"
   inkscape:showpageshadow="2"
   inkscape:pageopacity="0.0"
   inkscape:pagecheckerboard="0"
   inkscape:deskcolor="#d1d1d1"
   showgrid="false"
   inkscape:zoom="1.2286485"
   inkscape:cx="184.34891"
   inkscape:cy="201.84781"
   inkscape:current-layer="Layer_1" />
<style
   type="text/css"
   id="style13">
   .st0{fill:#F09021;}
   .st1{fill:#4B575E;}
</style>
<path
   class="st0"
   d="m 396.80722,108.11469 c -18.28428,1.11398 -36.54712,4.16671 -54.46721,8.93326 -8.9654,2.36721 -71.72318,16.30267 -137.98358,76.76823 -36.54712,-24.53969 -85.12309,-24.78606 -93.52078,-22.40814 -0.3749,0.10712 -0.69624,0.42846 -0.80335,0.86762 -0.16067,0.6534 0.1928,1.3175 0.79264,1.49959 l 0.0321,0.0107 c 4.11316,1.19967 8.06564,2.43148 11.94315,3.80253 3.87751,1.4139 7.64791,2.94562 11.37545,4.56304 7.43368,3.26696 14.62099,6.95166 21.65835,10.91486 7.02664,3.99533 13.94618,8.17276 20.69432,12.66081 l 10.09009,6.72673 4.99149,3.38479 c 1.61742,1.08184 3.3955,2.31365 4.73442,3.28838 l 8.15133,5.95551 6.57677,-7.30514 c 1.25323,-1.38176 2.8278,-3.22412 4.32739,-4.83082 l 4.65943,-4.97006 c 3.13843,-3.30981 6.35183,-6.57677 9.65093,-9.76875 6.56605,-6.4161 13.4963,-12.4573 20.65148,-18.16645 14.29965,-11.47185 29.52047,-21.6155 45.20188,-30.90224 15.76711,-9.13678 32.15547,-17.12744 49.11154,-23.6935 16.96677,-6.53392 34.51196,-11.40759 52.3892,-14.95304 0.53557,-0.10712 0.9426,-0.63197 0.91046,-1.24252 -0.0535,-0.6641 -0.5677,-1.16754 -1.16753,-1.1354 z"
   id="path15"
   style="stroke-width:1" />
<g
   id="g21"
   transform="matrix(1.0711348,0,0,1.0711348,-36.156172,-37.784578)"
   style="stroke-width:0.933589">
<path
   class="st0"
   d="m 398.35,126.97 c 0.01,0 0.02,0 0.03,0 l -0.04,-0.02 c 0,0 0,0.01 0.01,0.02 z"
   id="path17"
   style="stroke-width:0.933589" />
<path
   class="st0"
   d="m 223.06,200.5 c 64.2,-63.56 157.97,-72.82 174.55,-73.83 0.26,-0.02 0.49,0.09 0.68,0.26 L 228.56,47.92 c -3.44,-1.61 -7.42,-1.61 -10.86,0 L 42.76,129.76 c -4.79,2.24 -4.79,9.05 0,11.29 l 74.5,34.86 20.95,10.13 c 8.57,-2.24 51.71,-7.8 84.85,14.46 z"
   id="path19"
   style="stroke-width:0.933589" />
</g>
<g
   id="g25"
   transform="matrix(1.0711348,0,0,1.0711348,-36.156172,-37.784578)"
   style="stroke-width:0.933589">
<path
   class="st1"
   d="m 224.24,306.24 -4.87,-4.64 c -12.98,-12.36 -28.97,-22.46 -47.53,-30.03 -18.82,-7.63 -39.19,-12.2 -60.51,-13.56 l -6.61,-0.42 v -55.31 c 0,-3.83 2.87,-7.26 6.69,-7.45 4.07,-0.21 7.44,3.03 7.44,7.06 v 38.92 c 0,2.07 1.57,3.78 3.62,4.01 19.14,2.12 37.49,6.71 54.69,13.68 17.97,7.33 33.77,16.88 47.08,28.45 13.31,-11.57 29.11,-21.12 47.06,-28.45 17.06,-6.92 35.25,-11.49 54.22,-13.63 2.33,-0.26 4.1,-2.2 4.1,-4.54 v -55.05 c 0,-3.83 2.87,-7.26 6.69,-7.45 4.07,-0.21 7.44,3.03 7.44,7.06 v 72.72 l -6.61,0.42 c -21.31,1.37 -41.67,5.93 -60.51,13.57 -18.54,7.56 -34.53,17.67 -47.52,30.02 z"
   id="path23"
   style="stroke-width:0.933589" />
</g>
</svg>
