<?xml version="1.0" encoding="UTF-8" standalone="no"?>
<!-- Generator: Adobe Illustrator 27.7.0, SVG Export Plug-In . SVG Version: 6.00 Build 0)  -->

<svg
   version="1.1"
   id="Layer_1"
   x="0px"
   y="0px"
   viewBox="0 0 287.98293 116.96938"
   xml:space="preserve"
   width="287.98294"
   height="116.96938"
   sodipodi:docname="triangle.svg"
   inkscape:version="1.2.2 (b0a8486541, 2022-12-01)"
   xmlns:inkscape="http://www.inkscape.org/namespaces/inkscape"
   xmlns:sodipodi="http://sodipodi.sourceforge.net/DTD/sodipodi-0.dtd"
   xmlns="http://www.w3.org/2000/svg"
   xmlns:svg="http://www.w3.org/2000/svg"><sodipodi:namedview
   id="namedview6"
   pagecolor="#ffffff"
   bordercolor="#000000"
   borderopacity="0.25"
   inkscape:showpageshadow="2"
   inkscape:pageopacity="0.0"
   inkscape:pagecheckerboard="0"
   inkscape:deskcolor="#d1d1d1"
   showgrid="false"
   inkscape:zoom="18.876473"
   inkscape:cx="8.9264559"
   inkscape:cy="17.031784"
   inkscape:window-width="1920"
   inkscape:window-height="1025"
   inkscape:window-x="0"
   inkscape:window-y="0"
   inkscape:window-maximized="1"
   inkscape:current-layer="Layer_1" />
<defs
   id="defs32" />

<style
   type="text/css"
   id="style13">
   .st0{fill:#F09021;}
   .st1{fill:#4B575E;}
</style>
<path
   class="st0"
   d="m 286.81367,0.00146164 -286.83094262,0.01801 0.056014,63.06092936 c -0.16067,0.6534 0.1928,1.3175 0.79264,1.49959 l 0.0321,0.0107 c 4.11316002,1.19967 8.06564002,2.43148 11.94314962,3.80253 3.87751,1.4139 7.64791,2.94562 11.37545,4.56304 7.433684,3.26696 14.620994,6.95166 21.658354,10.91486 7.02664,3.99533 13.94618,8.17276 20.69432,12.66081 l 10.09009,6.726729 4.99149,3.38479 c 1.61742,1.08184 3.3955,2.31365 4.73442,3.28838 l 8.15133,5.95551 6.576775,-7.30514 c 1.25323,-1.38176 2.8278,-3.22412 4.32739,-4.83082 l 4.65943,-4.970059 c 3.13843,-3.30981 6.35183,-6.57677 9.65093,-9.76875 6.56605,-6.4161 13.4963,-12.4573 20.65148,-18.16645 14.29965,-11.47185 29.52047,-21.6155 45.20188,-30.90224 15.76711,-9.13678 32.15547,-17.12744 49.11154,-23.6935 16.96677,-6.5339202 34.55121,-11.2151355 52.3892,-14.9530406 0.79998,-0.1676346 0.9078,-0.58576354 0.90681,-1.29588876 z"
   id="path15"
   style="stroke-width:1"
   sodipodi:nodetypes="ccccccccccccccccccccscc" />


</svg>
